# 3ds Max Wavefront OBJ Exporter v0.97b - (c)2007 guruware
# File Created: 15.10.2015 13:58:16

#
# object Boulder2
#

v  5.6727 -48.6440 28.7115
v  -26.2205 -36.8110 16.9426
v  -9.0453 -48.1624 9.8535
v  -50.2161 2.2642 11.1085
v  -48.0104 10.8146 -5.9994
v  -55.6617 -8.3686 10.1698
v  31.9227 9.6232 25.3155
v  6.4356 9.2103 41.4857
v  41.8006 -14.1814 29.3475
v  42.4293 28.4084 -26.3679
v  36.7135 1.7650 -37.4750
v  14.8236 28.2194 -41.4857
v  64.4102 -6.6310 -8.8517
v  57.6019 -27.1677 16.5974
v  44.3353 -29.6586 -4.9153
v  55.4727 -13.2676 -15.9798
v  55.7684 -2.4330 -23.1633
v  36.1221 -19.9042 -23.1079
v  -11.0922 -24.8413 -26.4774
v  -33.3379 -4.6096 -31.2340
v  15.0415 3.3784 -40.7667
v  30.3821 -39.0657 24.3650
v  21.3013 -44.8655 9.3144
v  -14.7194 47.0943 -0.4432
v  -31.2654 31.4911 -3.5009
v  -20.8478 31.2861 21.3260
v  -58.6393 -20.0034 -13.2551
v  -61.7212 -17.2746 0.8853
v  -64.4102 -12.2684 -5.6172
v  -32.6608 -23.8638 -23.5382
v  -53.6757 -10.7139 -22.1033
v  -8.5952 35.2780 -32.8554
v  -33.3755 22.5167 -22.1040
v  -9.2562 46.6682 -24.0083
v  -22.0847 -22.5145 25.3908
v  -56.2684 -22.6023 11.2434
v  -33.8385 -31.7597 -4.7141
v  -12.0321 -34.9944 -7.9556
v  55.9539 7.1185 -10.6221
v  52.9931 2.8472 3.2746
v  37.2951 42.7499 -18.1233
v  21.5036 47.0229 -32.8199
v  10.8348 38.2622 19.0337
v  -5.8167 36.4259 20.2385
v  -2.9048 44.5363 8.5616
v  -22.0285 1.1923 32.1849
v  3.0107 -21.7337 38.6337
v  24.1056 -16.8192 34.7865
v  -46.2462 7.2973 -20.8972
v  24.7552 45.5203 -5.0610
v  2.0452 48.6440 -15.0345
v  4.7531 48.2213 -2.7212
v  39.8922 23.9506 1.8059
v  55.5746 11.0441 -23.3938
v  17.1717 -37.8365 -8.1487
v  -11.8909 13.1750 -35.7768
v  9.3295 -25.9249 -30.4703
v  22.9824 47.8053 -20.1956
# 58 vertices

vn -0.0078 -0.8089 0.5878
vn -0.5018 -0.7207 0.4784
vn -0.2432 -0.9586 -0.1479
vn -0.7705 0.3988 0.4973
vn -0.8011 0.5983 -0.0167
vn -0.6944 0.2611 0.6706
vn 0.5932 0.4503 0.6673
vn 0.0650 0.2737 0.9596
vn 0.5611 0.0521 0.8261
vn 0.6374 0.4034 -0.6566
vn 0.3922 -0.1556 -0.9066
vn 0.0583 0.2227 -0.9731
vn 0.9974 -0.0399 -0.0601
vn 0.8197 -0.4440 0.3620
vn 0.4791 -0.7963 -0.3694
vn 0.6178 -0.5787 -0.5324
vn 0.6787 -0.2348 -0.6959
vn 0.3775 -0.6427 -0.6666
vn -0.1454 -0.6466 -0.7488
vn -0.3172 -0.0599 -0.9465
vn -0.0137 -0.1733 -0.9848
vn 0.4432 -0.7178 0.5370
vn 0.3128 -0.9356 -0.1638
vn -0.4089 0.8971 0.1671
vn -0.7341 0.6783 0.0313
vn -0.4755 0.6045 0.6392
vn -0.6665 -0.6067 -0.4333
vn -0.9096 -0.3407 0.2379
vn -0.9950 0.0813 -0.0587
vn -0.2325 -0.6745 -0.7007
vn -0.6285 -0.0573 -0.7757
vn -0.3762 0.3959 -0.8377
vn -0.6403 0.5086 -0.5757
vn -0.3812 0.8214 -0.4242
vn -0.4026 -0.3165 0.8589
vn -0.6976 -0.5039 0.5094
vn -0.3398 -0.9054 -0.2546
vn -0.1392 -0.8488 -0.5101
vn 0.8022 0.5537 0.2233
vn 0.7705 0.4434 0.4579
vn 0.6861 0.7272 -0.0197
vn 0.2223 0.7530 -0.6193
vn 0.2704 0.7308 0.6267
vn -0.1257 0.7255 0.6766
vn -0.0495 0.8947 0.4439
vn -0.4514 0.0728 0.8893
vn -0.1024 -0.2516 0.9624
vn 0.2750 -0.2020 0.9400
vn -0.6706 0.4535 -0.5870
vn 0.3930 0.8535 0.3422
vn -0.0236 0.9991 -0.0339
vn 0.0759 0.9787 0.1906
vn 0.7185 0.5352 0.4443
vn 0.8393 0.3456 -0.4197
vn 0.1505 -0.8632 -0.4819
vn -0.3084 0.1033 -0.9456
vn 0.0255 -0.6454 -0.7634
vn 0.1914 0.9815 0.0085
# 58 vertex normals

vt 0.4584 0.6493 0.0000
vt 0.3880 0.6641 0.0000
vt 0.4231 0.6198 0.0000
vt 0.4190 0.1401 0.0000
vt 0.3648 0.1348 0.0000
vt 0.4276 0.1067 0.0000
vt 0.2315 0.3822 0.0000
vt 0.3144 0.3812 0.0000
vt 0.2094 0.4710 0.0000
vt 0.1452 0.2334 0.0000
vt 0.1311 0.1410 0.0000
vt 0.2042 0.1731 0.0000
vt 0.6046 0.5111 0.0000
vt 0.5574 0.5909 0.0000
vt 0.5265 0.5386 0.0000
vt 0.5714 0.4893 0.0000
vt 0.0650 0.1554 0.0000
vt 0.0396 0.1230 0.0000
vt 0.0919 0.0745 0.0000
vt 0.2320 0.0104 0.0000
vt 0.2970 0.0743 0.0000
vt 0.1834 0.1204 0.0000
vt 0.5063 0.6298 0.0000
vt 0.4781 0.5956 0.0000
vt 0.2959 0.2288 0.0000
vt 0.3297 0.1920 0.0000
vt 0.3591 0.2689 0.0000
vt 0.3881 0.0417 0.0000
vt 0.4170 0.0723 0.0000
vt 0.3982 0.0750 0.0000
vt 0.3036 0.0104 0.0000
vt 0.3532 0.0631 0.0000
vt 0.2529 0.1740 0.0000
vt 0.3071 0.1471 0.0000
vt 0.2632 0.1986 0.0000
vt 0.4000 0.7189 0.0000
vt 0.3035 0.6907 0.0000
vt 0.3479 0.6064 0.0000
vt 0.3965 0.5678 0.0000
vt 0.0536 0.3654 0.0000
vt 0.0994 0.3223 0.0000
vt 0.1270 0.3738 0.0000
vt 0.1940 0.2466 0.0000
vt 0.2122 0.2117 0.0000
vt 0.2740 0.2984 0.0000
vt 0.3122 0.2839 0.0000
vt 0.2873 0.2594 0.0000
vt 0.3979 0.3674 0.0000
vt 0.3483 0.4713 0.0000
vt 0.2721 0.4715 0.0000
vt 0.4733 0.7342 0.0000
vt 0.5476 0.3787 0.0000
vt 0.4379 0.4381 0.0000
vt 0.3357 0.1086 0.0000
vt 0.2265 0.2612 0.0000
vt 0.2549 0.2237 0.0000
vt 0.2621 0.2466 0.0000
vt 0.1873 0.3136 0.0000
vt 0.5280 0.7041 0.0000
vt 0.5687 0.6626 0.0000
vt 0.6228 0.5753 0.0000
vt 0.0792 0.1969 0.0000
vt 0.4625 0.5453 0.0000
vt 0.3264 0.5389 0.0000
vt 0.2507 0.1278 0.0000
vt 0.1693 0.0294 0.0000
vt 0.5111 0.4665 0.0000
vt 0.4307 0.4665 0.0000
vt 0.3795 0.4996 0.0000
vt 0.0826 0.2722 0.0000
vt 0.4950 0.3084 0.0000
vt 0.2704 0.6113 0.0000
vt 0.4545 0.0726 0.0000
vt 0.2185 0.2326 0.0000
vt 0.0117 0.1569 0.0000
# 75 texture coords

g Boulder2
s 1
f 1/1/1 2/2/2 3/3/3 
f 4/4/4 5/5/5 6/6/6 
f 7/7/7 8/8/8 9/9/9 
f 10/10/10 11/11/11 12/12/12 
f 13/13/13 14/14/14 15/15/15 
f 13/13/13 15/15/15 16/16/16 
f 17/17/17 16/18/16 18/19/18 
f 18/19/18 11/11/11 17/17/17 
f 19/20/19 20/21/20 21/22/21 
f 14/14/14 22/23/22 15/15/15 
f 23/24/23 1/1/1 3/3/3 
f 24/25/24 25/26/25 26/27/26 
f 27/28/27 28/29/28 29/30/29 
f 30/31/30 31/32/31 20/21/20 
f 32/33/32 33/34/33 34/35/34 
f 23/24/23 22/23/22 1/1/1 
f 2/2/2 35/36/35 36/37/36 
f 3/3/3 37/38/37 38/39/38 
f 13/40/13 39/41/39 40/42/40 
f 29/30/29 28/29/28 6/6/6 
f 41/43/41 10/10/10 42/44/42 
f 8/8/8 7/7/7 43/45/43 
f 43/45/43 44/46/44 8/8/8 
f 43/45/43 45/47/45 44/46/44 
f 46/48/46 47/49/47 8/8/8 
f 47/49/47 48/50/48 8/8/8 
f 35/36/35 2/2/2 47/51/47 
f 46/48/46 36/52/36 35/53/35 
f 1/1/1 22/23/22 47/51/47 
f 5/5/5 49/54/49 29/30/29 
f 25/26/25 33/34/33 5/5/5 
f 25/26/25 34/35/34 33/34/33 
f 33/34/33 20/21/20 49/54/49 
f 50/55/50 51/56/51 52/57/52 
f 43/45/43 53/58/53 50/55/50 
f 53/58/53 41/43/41 50/55/50 
f 7/7/7 40/42/40 53/58/53 
f 48/59/48 22/23/22 9/60/9 
f 40/61/40 14/14/14 13/13/13 
f 9/60/9 14/14/14 40/61/40 
f 54/62/54 11/11/11 10/10/10 
f 10/10/10 12/12/12 42/44/42 
f 42/44/42 32/33/32 34/35/34 
f 38/39/38 55/63/55 3/3/3 
f 37/38/37 30/64/30 38/39/38 
f 29/30/29 31/32/31 27/28/27 
f 31/32/31 49/54/49 20/21/20 
f 32/33/32 12/12/12 56/65/56 
f 12/12/12 11/11/11 21/22/21 
f 11/11/11 57/66/57 21/22/21 
f 15/15/15 55/63/55 18/67/18 
f 57/66/57 19/20/19 21/22/21 
f 57/68/57 38/39/38 19/69/19 
f 55/63/55 15/15/15 23/24/23 
f 15/15/15 22/23/22 23/24/23 
f 53/58/53 54/70/54 41/43/41 
f 4/71/4 46/48/46 26/27/26 
f 25/26/25 4/4/4 26/27/26 
f 5/5/5 29/30/29 6/6/6 
f 37/38/37 2/2/2 36/37/36 
f 27/72/27 37/38/37 36/37/36 
f 30/31/30 27/28/27 31/32/31 
f 32/33/32 56/65/56 33/34/33 
f 54/70/54 53/58/53 39/41/39 
f 26/27/26 46/48/46 8/8/8 
f 43/45/43 52/57/52 45/47/45 
f 46/48/46 35/53/35 47/49/47 
f 22/23/22 48/59/48 47/51/47 
f 49/54/49 31/32/31 29/30/29 
f 33/34/33 49/54/49 5/5/5 
f 25/26/25 24/25/24 34/35/34 
f 33/34/33 56/65/56 20/21/20 
f 42/44/42 34/35/34 51/56/51 
f 43/45/43 7/7/7 53/58/53 
f 7/7/7 9/9/9 40/42/40 
f 22/23/22 14/14/14 9/60/9 
f 42/44/42 12/12/12 32/33/32 
f 55/63/55 23/24/23 3/3/3 
f 30/64/30 19/69/19 38/39/38 
f 19/20/19 30/31/30 20/21/20 
f 12/12/12 21/22/21 56/65/56 
f 55/63/55 57/68/57 18/67/18 
f 57/68/57 55/63/55 38/39/38 
f 25/26/25 5/5/5 4/4/4 
f 8/8/8 48/50/48 9/9/9 
f 46/48/46 4/71/4 36/52/36 
f 4/4/4 6/6/6 36/73/36 
f 11/11/11 54/62/54 17/17/17 
f 11/11/11 18/19/18 57/66/57 
f 50/55/50 41/43/41 58/74/58 
f 50/55/50 58/74/58 51/56/51 
f 34/35/34 24/25/24 51/56/51 
f 51/56/51 24/25/24 52/57/52 
f 43/45/43 50/55/50 52/57/52 
f 44/46/44 26/27/26 8/8/8 
f 45/47/45 24/25/24 44/46/44 
f 52/57/52 24/25/24 45/47/45 
f 24/25/24 26/27/26 44/46/44 
f 30/64/30 37/38/37 27/72/27 
f 27/28/27 36/73/36 28/29/28 
f 28/29/28 36/73/36 6/6/6 
f 20/21/20 56/65/56 21/22/21 
f 13/40/13 54/70/54 39/41/39 
f 53/58/53 40/42/40 39/41/39 
f 17/17/17 13/75/13 16/18/16 
f 54/62/54 13/75/13 17/17/17 
f 15/15/15 18/67/18 16/16/16 
f 2/2/2 1/1/1 47/51/47 
f 3/3/3 2/2/2 37/38/37 
f 54/70/54 10/10/10 41/43/41 
f 41/43/41 42/44/42 58/74/58 
f 58/74/58 42/44/42 51/56/51 
# 112 faces

